<mxfile modified="2019-12-12T07:39:40.178Z" host="www.draw.io" agent="Mozilla/5.0 (Windows NT 6.1; Win64; x64) AppleWebKit/537.36 (KHTML, like Gecko) Chrome/79.0.3945.79 Safari/537.36" etag="bBiinySNzL_jLULlxm9S" version="12.3.9" type="github" pages="1">
  <diagram id="vJ-QwX5H1grMtoS1nUNN" name="Java内存模型">
    <mxGraphModel dx="1408" dy="780" grid="1" gridSize="10" guides="1" tooltips="1" connect="1" arrows="1" fold="1" page="1" pageScale="1" pageWidth="3300" pageHeight="4681" math="0" shadow="0">
      <root>
        <mxCell id="0"/>
        <mxCell id="1" parent="0"/>
        <mxCell id="RHql8dd4VOrjxYyGl-rB-2" value="" style="rounded=1;whiteSpace=wrap;html=1;fontSize=16;direction=south;fillColor=#67AB9F;strokeColor=#005700;fontColor=#ffffff;" parent="1" vertex="1">
          <mxGeometry x="290" y="250" width="90" height="140" as="geometry"/>
        </mxCell>
        <mxCell id="RHql8dd4VOrjxYyGl-rB-5" value="" style="rounded=1;whiteSpace=wrap;html=1;fontSize=16;fillColor=#d5e8d4;strokeColor=#82b366;gradientColor=#97d077;" parent="1" vertex="1">
          <mxGeometry x="290" y="300" width="90" height="90" as="geometry"/>
        </mxCell>
        <mxCell id="RHql8dd4VOrjxYyGl-rB-1" value="Java内存模型(JMM与内存可见性)" style="text;html=1;resizable=0;points=[];autosize=1;align=left;verticalAlign=top;spacingTop=-4;fontSize=16;fontStyle=1" parent="1" vertex="1">
          <mxGeometry x="360" y="190" width="190" height="20" as="geometry"/>
        </mxCell>
        <mxCell id="RHql8dd4VOrjxYyGl-rB-4" value="变量副本" style="rounded=1;whiteSpace=wrap;html=1;fontSize=16;" parent="1" vertex="1">
          <mxGeometry x="300" y="345" width="70" height="40" as="geometry"/>
        </mxCell>
        <mxCell id="RHql8dd4VOrjxYyGl-rB-7" value="线程A" style="text;html=1;resizable=0;points=[];autosize=1;align=center;verticalAlign=top;spacingTop=-4;fontSize=16;fontColor=#FFFFFF;" parent="1" vertex="1">
          <mxGeometry x="305" y="270" width="60" height="20" as="geometry"/>
        </mxCell>
        <mxCell id="RHql8dd4VOrjxYyGl-rB-8" value="工作内存" style="text;html=1;resizable=0;points=[];autosize=1;align=left;verticalAlign=top;spacingTop=-4;fontSize=16;fontColor=#000000;" parent="1" vertex="1">
          <mxGeometry x="300" y="315" width="80" height="20" as="geometry"/>
        </mxCell>
        <mxCell id="RHql8dd4VOrjxYyGl-rB-10" value="" style="rounded=1;whiteSpace=wrap;html=1;fontSize=16;direction=south;fillColor=#67AB9F;strokeColor=#005700;fontColor=#ffffff;" parent="1" vertex="1">
          <mxGeometry x="455" y="250" width="90" height="140" as="geometry"/>
        </mxCell>
        <mxCell id="RHql8dd4VOrjxYyGl-rB-11" value="" style="rounded=1;whiteSpace=wrap;html=1;fontSize=16;fillColor=#d5e8d4;strokeColor=#82b366;gradientColor=#97d077;" parent="1" vertex="1">
          <mxGeometry x="455" y="300" width="90" height="90" as="geometry"/>
        </mxCell>
        <mxCell id="RHql8dd4VOrjxYyGl-rB-12" value="变量副本" style="rounded=1;whiteSpace=wrap;html=1;fontSize=16;" parent="1" vertex="1">
          <mxGeometry x="465" y="345" width="70" height="40" as="geometry"/>
        </mxCell>
        <mxCell id="RHql8dd4VOrjxYyGl-rB-13" value="线程B" style="text;html=1;resizable=0;points=[];autosize=1;align=center;verticalAlign=top;spacingTop=-4;fontSize=16;fontColor=#FFFFFF;" parent="1" vertex="1">
          <mxGeometry x="470" y="270" width="60" height="20" as="geometry"/>
        </mxCell>
        <mxCell id="RHql8dd4VOrjxYyGl-rB-14" value="工作内存" style="text;html=1;resizable=0;points=[];autosize=1;align=left;verticalAlign=top;spacingTop=-4;fontSize=16;fontColor=#000000;" parent="1" vertex="1">
          <mxGeometry x="465" y="315" width="80" height="20" as="geometry"/>
        </mxCell>
        <mxCell id="RHql8dd4VOrjxYyGl-rB-15" value="" style="rounded=1;whiteSpace=wrap;html=1;fontSize=16;direction=south;fillColor=#67AB9F;strokeColor=#005700;fontColor=#ffffff;" parent="1" vertex="1">
          <mxGeometry x="600" y="250" width="90" height="140" as="geometry"/>
        </mxCell>
        <mxCell id="RHql8dd4VOrjxYyGl-rB-16" value="" style="rounded=1;whiteSpace=wrap;html=1;fontSize=16;fillColor=#d5e8d4;strokeColor=#82b366;gradientColor=#97d077;" parent="1" vertex="1">
          <mxGeometry x="600" y="300" width="90" height="90" as="geometry"/>
        </mxCell>
        <mxCell id="RHql8dd4VOrjxYyGl-rB-17" value="变量副本" style="rounded=1;whiteSpace=wrap;html=1;fontSize=16;" parent="1" vertex="1">
          <mxGeometry x="610" y="345" width="70" height="40" as="geometry"/>
        </mxCell>
        <mxCell id="RHql8dd4VOrjxYyGl-rB-18" value="线程C" style="text;html=1;resizable=0;points=[];autosize=1;align=center;verticalAlign=top;spacingTop=-4;fontSize=16;fontColor=#FFFFFF;" parent="1" vertex="1">
          <mxGeometry x="615" y="270" width="60" height="20" as="geometry"/>
        </mxCell>
        <mxCell id="RHql8dd4VOrjxYyGl-rB-19" value="工作内存" style="text;html=1;resizable=0;points=[];autosize=1;align=left;verticalAlign=top;spacingTop=-4;fontSize=16;fontColor=#000000;" parent="1" vertex="1">
          <mxGeometry x="610" y="315" width="80" height="20" as="geometry"/>
        </mxCell>
        <mxCell id="RHql8dd4VOrjxYyGl-rB-20" value="" style="rounded=1;whiteSpace=wrap;html=1;fillColor=#d5e8d4;fontSize=16;align=center;gradientColor=#97d077;strokeColor=#82b366;" parent="1" vertex="1">
          <mxGeometry x="280" y="457" width="410" height="83" as="geometry"/>
        </mxCell>
        <mxCell id="RHql8dd4VOrjxYyGl-rB-23" value="" style="shape=doubleArrow;direction=south;whiteSpace=wrap;html=1;fillColor=#FFFFFF;fontSize=16;fontColor=#000000;align=center;strokeColor=#97D077;" parent="1" vertex="1">
          <mxGeometry x="322.5" y="395" width="25" height="55" as="geometry"/>
        </mxCell>
        <mxCell id="RHql8dd4VOrjxYyGl-rB-26" value="共享变量" style="rounded=1;whiteSpace=wrap;html=1;strokeColor=#000000;fillColor=#FFFFFF;fontSize=16;fontColor=#000000;align=center;" parent="1" vertex="1">
          <mxGeometry x="360" y="478.5" width="75" height="40" as="geometry"/>
        </mxCell>
        <mxCell id="RHql8dd4VOrjxYyGl-rB-27" value="主内存" style="text;html=1;resizable=0;points=[];autosize=1;align=left;verticalAlign=top;spacingTop=-4;fontSize=16;fontColor=#000000;" parent="1" vertex="1">
          <mxGeometry x="292.5" y="488.5" width="60" height="20" as="geometry"/>
        </mxCell>
        <mxCell id="RHql8dd4VOrjxYyGl-rB-28" value="共享变量" style="rounded=1;whiteSpace=wrap;html=1;strokeColor=#000000;fillColor=#FFFFFF;fontSize=16;fontColor=#000000;align=center;" parent="1" vertex="1">
          <mxGeometry x="462.5" y="478.5" width="75" height="40" as="geometry"/>
        </mxCell>
        <mxCell id="RHql8dd4VOrjxYyGl-rB-29" value="共享变量" style="rounded=1;whiteSpace=wrap;html=1;strokeColor=#000000;fillColor=#FFFFFF;fontSize=16;fontColor=#000000;align=center;" parent="1" vertex="1">
          <mxGeometry x="605" y="479" width="75" height="42" as="geometry"/>
        </mxCell>
        <mxCell id="RHql8dd4VOrjxYyGl-rB-32" value="" style="shape=doubleArrow;direction=south;whiteSpace=wrap;html=1;fillColor=#FFFFFF;fontSize=16;fontColor=#000000;align=center;strokeColor=#97D077;" parent="1" vertex="1">
          <mxGeometry x="485.5" y="393.5" width="25" height="55" as="geometry"/>
        </mxCell>
        <mxCell id="RHql8dd4VOrjxYyGl-rB-37" value="" style="shape=doubleArrow;direction=south;whiteSpace=wrap;html=1;fillColor=#FFFFFF;fontSize=16;fontColor=#000000;align=center;strokeColor=#97D077;" parent="1" vertex="1">
          <mxGeometry x="637.5" y="393.5" width="25" height="55" as="geometry"/>
        </mxCell>
      </root>
    </mxGraphModel>
  </diagram>
</mxfile>
